<?xml version="1.0" encoding="utf-8"?>
<!-- Generator: Adobe Illustrator 25.0.0, SVG Export Plug-In . SVG Version: 6.00 Build 0)  -->
<svg version="1.1" id="Layer_1" xmlns="http://www.w3.org/2000/svg" xmlns:xlink="http://www.w3.org/1999/xlink" x="0px" y="0px"
	 viewBox="0 0 800 800" style="enable-background:new 0 0 800 800;" xml:space="preserve">
<style type="text/css">
	.st0{stroke:#000000;stroke-miterlimit:10;}
	.st1{fill:#5181AE;stroke:#000000;stroke-miterlimit:10;}
	.st2{fill:#A1A4A7;stroke:#000000;stroke-miterlimit:10;}
	.st3{fill:#A0A3A6;stroke:#000000;stroke-miterlimit:10;}
	.st4{font-family:'MyriadPro-Semibold';}
	.st5{font-size:17px;}
	.st6{font-size:56.3824px;}
	.st7{fill:#A0A3A6;}
	.st8{font-size:13.0904px;}
	.st9{font-size:20.9565px;}
</style>
<g>
	<rect class="st0" width="800" height="800"/>
	<path class="st1" d="M150.7,229c-7.5-9.9-6.1-19.7-10.9-20.4c-11.3-1.6-39.4,49.6-29.3,95.2c7.9,35.4,33.1,41.7,46.3,65.3
		c44.6,80.2-139.5,200.8-115,298c30.8,122.2,369.8,122.7,404.1,122.4c81.2-0.5,252.7-1.5,283.7-81c23.5-60.2-60.9-96-75.5-214.3
		c-18.4-148.7,100.9-203.7,68-310.9C686.7,67.8,516.2,28.9,469.1,18.1C371.3-4.2,221.5-5.1,194.9,56.9c-25.8,60.1,80,143.1,51,178.9
		C228.6,257.2,169.6,254.1,150.7,229z"/>
	<path class="st2" d="M284,82.1c-0.5,60.7,11.4,81.1,24.5,86.4c7.3,2.9,15.7,1.4,18.4,6.8c5.8,11.6-26.8,30.6-22.4,46.3
		c4,14.2,33.9,6.9,50.3,25.2c21.7,24.2,2.3,73.2,1.4,75.5c-20,48.7-66.7,59.5-104.8,85.7c-121.7,83.8-102.9,255.8-92,282.8
		c1,2.5,5.2,11.7,8,11.1c4.9-1-2.6-28.7,8.4-38.2c12.9-11.1,45.8,7.5,52.2,11.2c0,0,50.3,28.3,181.8,79.3
		c110,42.7,251.5-14.2,254.4-51c2.9-36.7-156.7-33.1-240.1-154.4c-41.5-60.3-71.2-161.8-30.6-218.4c37.4-52.1,152.6-91,211.6-110.9
		c17.5-5.9,39.4-12.7,41.5-26.5c3.7-24.1-58-34.3-125.9-96.6C471,50.6,468,22.8,433,17.5c-34-5.2-42.5,19.4-89.8,16.3
		c-40.2-2.7-65.9-22.6-78.9-10.2c-6.9,6.5-6.4,18.4-4.8,27.9"/>
	<path class="st3" d="M374.3,396.2c13.2-12.3,41.8-4.5,98.9,11c77.7,21.1,116.5,31.7,123.5,57c12.1,44.2-71.2,134.3-144.4,118.3
		C371.3,564.9,342,426.2,374.3,396.2z"/>
	<path class="st3" d="M301.7,548.7"/>
	<circle class="st0" cx="381.3" cy="231.7" r="3.7"/>
	<circle class="st0" cx="507.4" cy="435.1" r="3.7"/>
	<text transform="matrix(1 0 0 1 451.3206 454.3414)" class="st4 st5">The Vale of Arryn</text>
	<text transform="matrix(1 0 0 1 388.9316 235.483)" class="st4 st5">The North</text>
	<text transform="matrix(1.0911 0 0 1 281.153 298.9101)" class="st4 st6">Westeros</text>
	<text transform="matrix(1 0 0 1 386.6539 727.063)" class="st4 st5">Dorne</text>
	<text transform="matrix(1 0 0 1 231.1279 435.1429)" class="st4 st5">Westerlands</text>
	<text transform="matrix(1 0 0 1 468.2179 543.6074)" class="st4 st5">Crownlands</text>
	<circle class="st0" cx="451.5" cy="584.5" r="3.7"/>
	<text transform="matrix(1 0 0 1 361.3889 606.5364)" class="st4 st5">King’s Landing</text>
	<text transform="matrix(1 0 0 1 511.1709 695.1776)" class="st4 st5">Stormlands</text>
	<path class="st7" d="M201.7,295c-2.3,2.7-7.5,9.6-6.8,18.4c1.3,16.9,23.8,30.3,34,24.5c7.3-4.1,9.4-18.5,4.8-34"/>
	<path class="st7" d="M248.7,285.5c8.2,20.1,11.1,30.7,8.8,32c-2.6,1.5-12.4-9.9-29.3-34"/>
	<path class="st7" d="M254.1,337.9c17.1,4,30.1,3,32.7-2.7c2-4.5-2.7-11.8-8.2-15c-7.9-4.5-19.6-2-27.2,7.5"/>
	<path class="st7" d="M240.5,318.1c-0.8,3.6-0.8,5.7,0,6.1c1.1,0.6,3.6-1.5,7.5-6.1"/>
	<circle class="st0" cx="224.5" cy="336.5" r="3.7"/>
	<text transform="matrix(1 0 0 1 212.6379 351.4316)" class="st4 st8">Pyke</text>
	<text transform="matrix(1 0 0 1 153.0498 283.442)" class="st4 st5">The Iron Islands</text>
	<circle class="st0" cx="444" cy="87.5" r="3.7"/>
	<text transform="matrix(1 0 0 1 402.5771 109.3427)" class="st4 st5">Castle Black</text>
	<circle class="st0" cx="385.1" cy="155" r="3.7"/>
	<text transform="matrix(1 0 0 1 394.3019 163.1347)" class="st4 st5">Winterfell</text>
	<text transform="matrix(1 0 0 1 240.0714 58.9071)"><tspan x="0" y="0" class="st4 st5">The Lands of </tspan><tspan x="0" y="20.4" class="st4 st5">Always Winter </tspan></text>
	<text transform="matrix(1 0 0 1 220.7689 570.6803)" class="st4 st9">The Reach</text>
	<circle class="st0" cx="191.1" cy="643.3" r="3.7"/>
	<text transform="matrix(1 0 0 1 199.0282 650.9042)" class="st4 st5">Oldtown</text>
	<circle class="st0" cx="166.8" cy="692.1" r="3.7"/>
	<text transform="matrix(1 0 0 1 171.7275 703.4565)" class="st4 st5">Blackcrown</text>
	<circle class="st0" cx="187.4" cy="487.3" r="3.7"/>
	<text transform="matrix(1 0 0 1 166.7792 508.542)" class="st4 st5">Lannisport</text>
	<circle class="st0" cx="546.2" cy="647" r="3.7"/>
	<text transform="matrix(1 0 0 1 555.0702 647.2339)" class="st4 st5">Storm’s end</text>
</g>
</svg>
