<?xml version="1.0" encoding="utf-8"?>
<!-- Generator: Adobe Illustrator 25.0.0, SVG Export Plug-In . SVG Version: 6.00 Build 0)  -->
<svg version="1.1" id="Layer_1" xmlns="http://www.w3.org/2000/svg" xmlns:xlink="http://www.w3.org/1999/xlink" x="0px" y="0px"
	 viewBox="0 0 591 742" style="enable-background:new 0 0 591 742;" xml:space="preserve">
<style type="text/css">
	.st0{fill:#464444;}
	.st1{fill:#585858;}
	.st2{fill:#A00212;}
	.st3{fill-rule:evenodd;clip-rule:evenodd;fill:url(#SVGID_1_);}
</style>
<g>
	<path class="st0" d="M41.9,692.1h507.2v23H41.9V692.1z"/>
	<path class="st1" d="M88.3,519.3h412.5l49.7,172.9h-510L88.3,519.3z"/>
	<g>
		<path class="st2" d="M46,448l8.4-400.1h475.5L545,448l-78.7,88.8L296.4,644L134.7,536.8L46,448z"/>
		<path class="st2" d="M544.1,394.5H46.9v55.2l85.4,83.7L298,644l167.5-107.2l78.7-87.1V394.5z"/>
		<linearGradient id="SVGID_1_" gradientUnits="userSpaceOnUse" x1="126.7961" y1="277.0605" x2="464.2039" y2="277.0605">
			<stop  offset="0.1572" style="stop-color:#FFFFFF"/>
			<stop  offset="0.6645" style="stop-color:#000000"/>
		</linearGradient>
		<path class="st3" d="M360.5,108.1c-8.2,0-16.7,0.9-25.8,2.7c23.8,4.9,38.9,15.7,47,28c-11.1-1.8-21.8-3.3-32.4-4l-13.5-12.4
			l-13.8,11.8c-5.5,0.2-10.7,0.4-16,0.9l-21.1-11.6l-10.6,16.4c-5.8,1.3-11.5,2.7-17.1,4.4L236,133.6l-8,22
			c-6.2,2.9-12.4,6.4-18.2,10l-23.3-3.8l-0.4,20.7c-4.5,3.8-8.9,7.6-13.1,11.8h-25.3l2.7,26.2c-3.1,4.2-6.2,8.6-9.1,13.1l-14.6-2.5
			v28.2l0,0V446h13.3c16.7-66.4,67.5-93.2,120.7-61c30,18.2,67,44.4,106.5,29.5c-0.7,5.6-2.4,11.1-4.9,16.2l68.1,13.6
			c2.2-5.5,4-11.3,5.5-16.7c-2.5,1.6-7.5,3.5-14.2,2.4c-29.5-4.5-23.7-38.6-0.4-41.7c7.8-1.1,15.1,2.4,19.7,8l13.1-27.8
			c-48.6,4.4-92.6-22-141-11.8c25.3,5.3,40.8,16.9,48.4,30.2c-5.3,0.4-10.4,0.4-15.3,0.2l-7.6-7.3l-9.6,4.5
			c-4.2-1.1-8.4-2.5-12.4-4.2l-5.5-11.1l-7.8,4.2c-5.1-3.1-10-6.7-14.6-10.7l-1.3-19.1l-13.8,3.6c-5.3-5.5-10.7-9.8-16.4-13.1
			l-0.9-14.2l-17.1,6.7c-8.4-2-16.7-1.8-25.1-0.2c31.7-64.6,95.7-66.1,129.2-46c-3.8,4-8.2,7.5-12.9,9.8l47.5,50.6
			c4.9-3.3,9.6-6.9,14.2-10.6c-3.1-0.2-10.2-3.6-12.6-5.8c-24.8-22.7,5.1-45.7,23.5-34.8c6.7,4,10.9,10.6,11.5,18l24.8-17.1
			c-42.2-24.6-60.8-69.5-106.1-89.4c16.6,17.8,22.6,35.1,22.2,49.9c-6.4-4.7-13.3-8.6-20.6-11.6l-9.8-15.1l-12.9,9.1
			c-3.6-0.5-7.5-0.9-11.3-1.1l-13.6-12.9l-10.9,14c-5.6,0.7-11.3,1.8-17.1,3.3l-11.3-9.3l-6.9,14.9c-4.9,1.8-10,3.8-14.9,6.2
			l-16.9-5.8l-6.2,18.6c-8.7,5.5-17.1,11.8-24.9,18.6c24.6-98.3,147.6-122.3,210.7-108.3c-0.7,4.9-2.4,9.5-4.5,13.8l68.1,13.6
			c2.2-5.5,4-11.3,5.5-16.7c-2.5,1.6-5.3,3.8-8.6,3.5c-33.1-4.5-31.3-39.1-6-42.8c7.8-1.1,15.1,2.4,19.7,8
			c0.7-7.3,1.3-25.5,1.6-32.8C424.7,121.4,395.8,107.9,360.5,108.1L360.5,108.1z"/>
	</g>
</g>
</svg>
