<?xml version="1.0" encoding="utf-8"?>
<!-- Generator: Adobe Illustrator 25.0.0, SVG Export Plug-In . SVG Version: 6.00 Build 0)  -->
<svg version="1.1" id="Layer_1" xmlns="http://www.w3.org/2000/svg" xmlns:xlink="http://www.w3.org/1999/xlink" x="0px" y="0px"
	 viewBox="0 0 591 742" style="enable-background:new 0 0 591 742;" xml:space="preserve">
<style type="text/css">
	.st0{fill:#464444;}
	.st1{fill:#585858;}
	.st2{fill:#8E2D06;}
	.st3{fill:url(#SVGID_1_);}
</style>
<g>
	<path class="st0" d="M41.9,692.1h507.2v23H41.9V692.1z"/>
	<path class="st1" d="M88.3,519.3h412.5l49.7,172.9h-510L88.3,519.3z"/>
	<path class="st2" d="M46,448l8.4-400.1h475.5L545,448l-78.7,88.8L296.4,644L134.7,536.8L46,448z"/>
	<path class="st2" d="M544.1,394.5H46.9v55.2l85.4,83.7L298,644l167.5-107.2l78.7-87.1V394.5z"/>
	<linearGradient id="SVGID_1_" gradientUnits="userSpaceOnUse" x1="138.9693" y1="289.7849" x2="477.9439" y2="289.7849">
		<stop  offset="0.3768" style="stop-color:#FFFFFF"/>
		<stop  offset="0.8442" style="stop-color:#000000"/>
		<stop  offset="0.9118" style="stop-color:#000000"/>
	</linearGradient>
	<path class="st3" d="M214.4,123.5c-7.6,0.3-15.5,2.2-23.5,4l45.4,47.8l-15.7,0.2c-21.4,0.2-55.1,4.5-75.3,16.2l23.1,37.5L139,244.4
		v41.1l33.8,19L139,333.7v23.5c20.5-0.9,44.2,0.5,64.9-6.6l23.1-7.8l-15.9,18.6c-13.6,16.1-21.7,40-36.9,63.9
		c23.3-1.7,46.1-5.5,70.4-18.8l11.7-6.4l-7.1,56.1c19.2-8.8,38-21.1,51.8-35.7c16.6-17.4,26.1-36.8,24.3-52.8v-0.5
		c-13.5-9.1-23.5-22.6-28.5-39.4c-6-20.2-4.3-45.4,4.8-73.5c-19.2-2.9-33.8-10.7-41.8-21.9c-9-12.9-10.4-28.5-5.7-41.4
		s16.2-23.5,31.6-24.3c15-0.9,32.3,7.2,50.9,26.2c8.3,2.9,15.9,5.9,22.6,8.6c1.7-15.5-1-27.6-7.6-38.5c-6-10.2-16.9-19.2-29.9-28.1
		l3.1,31.2l-11.9-7.9C286,140.2,247.2,121.9,214.4,123.5L214.4,123.5L214.4,123.5z M287.4,180.1c-0.3,0-0.7,0-0.9,0l0,0
		c-9.8,0.5-16.4,6.6-19.7,15.4c-3.3,8.8-2.4,19.8,4,29c6.4,9.1,18.3,16.9,39,17.9l9.1,0.5l-3.1,8.6c-10.9,29.5-11.7,53.8-6.2,72.1
		c5.5,18.5,17.4,31.1,34.3,38.3l0,0l79,28c4.1-8.6,8.5-17.3,13.1-26.1c-3.6,1.6-7.6,2.4-11.9,2.4c-16.4,0-29.7-13.3-29.7-29.7
		s13.3-29.7,29.7-29.7c15,0,27.4,11.2,29.3,25.7c7.8-13.1,15.9-26.2,24.3-39l-75.1-38.1l-3.5-4.1c-2.9-9.8-8.5-16.9-19.2-24.2
		c-10.9-7.2-26.9-14.2-49.4-22.3l-1.6-0.5l-1-1.2C311.4,185.4,297.2,179.9,287.4,180.1L287.4,180.1z M374,245.5
		c6,0,10.7,4.7,10.7,10.7c0,6-4.7,10.7-10.7,10.7c-6,0-10.7-4.7-10.7-10.7C363.3,250.1,368,245.5,374,245.5L374,245.5z"/>
</g>
</svg>
