<?xml version="1.0" encoding="utf-8"?>
<!-- Generator: Adobe Illustrator 25.0.0, SVG Export Plug-In . SVG Version: 6.00 Build 0)  -->
<svg version="1.1" id="Layer_1" xmlns="http://www.w3.org/2000/svg" xmlns:xlink="http://www.w3.org/1999/xlink" x="0px" y="0px"
	 viewBox="0 0 591 742" style="enable-background:new 0 0 591 742;" xml:space="preserve">
<style type="text/css">
	.st0{fill:#464444;}
	.st1{fill:#585858;}
	.st2{fill:#DD9B54;}
	.st3{fill:url(#SVGID_1_);}
</style>
<g>
	<path class="st0" d="M41.9,692.1h507.2v23H41.9V692.1z"/>
	<path class="st1" d="M88.3,519.3h412.5l49.7,172.9h-510L88.3,519.3z"/>
	<path class="st2" d="M46,448l8.4-400.1h475.5L545,448l-78.7,88.8L296.4,644L134.7,536.8L46,448z"/>
	<path class="st2" d="M544.1,394.5H46.9v55.2l85.4,83.7L298,644l167.5-107.2l78.7-87.1V394.5z"/>
	<linearGradient id="SVGID_1_" gradientUnits="userSpaceOnUse" x1="295.5" y1="458" x2="295.5" y2="132.7">
		<stop  offset="0.1866" style="stop-color:#E4E3E3"/>
		<stop  offset="0.2866" style="stop-color:#FFFFFF"/>
		<stop  offset="0.5193" style="stop-color:#322F30"/>
		<stop  offset="0.8668" style="stop-color:#000000"/>
	</linearGradient>
	<path class="st3" d="M134.6,132.7c-14.9,9.6-21.6,24.9-21,40c0.6,15,7.7,29.6,19.1,40.9c1.1,1.1,2.3,2.3,3.5,3.3
		c-6,10.1-15.2,11.6-22.7,9.5c-4.4-1.2-7.7-3.9-9.5-6.9c-1.8-3.2-2.4-6.9,0-12.6l-15.3-6.5c-4.1,9.8-3.5,19.7,0.8,27.2
		c4.2,7.5,11.4,12.6,19.5,14.9c13.8,3.9,31-1.1,40.9-16.2c7.7,3.9,16.2,6.3,25.2,7.1c0.6,10.2,4.4,19.7,10.4,28.2
		c-5.4,2-9.9,5.6-12.8,10.4c-7.7,12.8-2.6,31.4,15.6,44l9.5-13.7c-13.5-9.5-13.2-17.9-10.8-21.8c1.2-2,3-3.3,6-3.6
		c2.6-0.3,6.3,0.3,10.7,3c2.6,2,5.4,3.8,8.3,5.6c14.3,8.6,31.9,14.9,51.2,18.3c-7.2,5.6-12.3,12.6-16.1,20.9
		c-29.2-7.7-57.4-0.2-84.4,30.8c28.1,6.5,55.3,7.8,80.4-3l33.7,94.5c3.9,14.6,28.9,15,32.9,0l34-95.1c25.4,11.4,53,10.2,81.6,3.6
		c-27.2-31.1-55.6-38.5-84.9-30.7c-3.8-8.3-8.9-15.2-15.6-20.4c20.9-3.2,39.7-9.8,54.8-18.9c3.3-2,6.3-4.1,9.2-6.3
		c3.9-2.1,7.1-2.6,9.5-2.3c3,0.3,4.8,1.7,6,3.6c2.4,3.9,2.7,12.3-10.8,21.8l9.5,13.7c18.2-12.6,23.3-31.3,15.6-44
		c-2.9-4.7-7.2-8.3-12.6-10.2c6-8.6,9.8-18,10.4-28.2c9.2-0.6,17.7-3,25.4-6.8c9.9,14.7,26.9,19.7,40.6,15.8
		c8.1-2.3,15.3-7.4,19.5-14.9c4.2-7.5,4.8-17.4,0.8-27.2l-15.3,6.5c2.4,5.7,1.8,9.5,0,12.6s-5.1,5.7-9.5,6.9
		c-7.4,2.1-16.2,0.8-22.2-8.9c1.5-1.2,2.9-2.6,4.2-3.9c11.3-11.3,18.5-26,18.9-40.9c0.6-15-6.2-30.4-21-40l-9,14
		c10.4,6.6,13.8,15.3,13.4,25.4c-0.5,9.9-5.6,21.2-14.1,29.9c-13.2,13.2-33.2,21-56.9,11.4c5.4-3.3,10.1-8.7,12.9-15.6l-15.3-6.3
		c-2.4,5.9-5.4,8-8.9,9c-3.5,1.1-7.7,0.5-11.7-1.8c-7.8-4.4-13.8-13.7-7.5-28.1L345,164c-8.7,19.7-1.2,38.3,11.7,47.3l0,0
		c14.1,12,28.7,18.6,42.4,21c-5.1,13.4-12.5,20.9-20.4,24.9c-8.3,4.2-17.4,4.7-25.5,2.4c-8.1-2.3-15.2-7.2-18.8-12.8
		s-4.5-11.3-0.8-18.6l-14.7-7.5c-6.2,12.2-4.7,25.2,1.5,35c6.3,9.8,16.5,16.7,28.4,20c3,0.8,6.2,1.4,9.3,1.7
		c-17.3,7.5-39.1,12.2-62.7,12.2c-22.4,0-43.1-4.2-60-11.1c2.3-0.3,4.7-0.8,6.8-1.4c11.7-3.2,22.1-10.1,28.4-20
		c6.3-9.8,7.8-23,1.5-35l-14.7,7.5c3.8,7.2,2.9,12.9-0.8,18.6c-3.6,5.6-10.5,10.7-18.8,12.8c-8.1,2.3-17.3,1.8-25.5-2.4
		c-8.1-4.2-15.6-12-20.9-26.1c13.8-2.3,28.5-8.6,42.8-20.6c13.5-8.7,21.8-27.8,12.9-48.1l-15.2,6.6c6.3,14.4,0.3,23.6-7.5,28.1
		c-3.9,2.3-8.3,2.7-11.6,1.8c-3.5-1.1-6.6-3.2-8.9-9l-15.3,6.3c2.9,6.9,7.4,12.2,12.8,15.6c-23.9,9.8-44,2-57.2-11.3
		c-8.6-8.7-13.8-19.8-14.1-29.9c-0.5-9.9,3.2-18.6,13.4-25.4L134.6,132.7L134.6,132.7z"/>
</g>
</svg>
