<?xml version="1.0" encoding="utf-8"?>
<!-- Generator: Adobe Illustrator 25.0.0, SVG Export Plug-In . SVG Version: 6.00 Build 0)  -->
<svg version="1.1" id="Layer_1" xmlns="http://www.w3.org/2000/svg" xmlns:xlink="http://www.w3.org/1999/xlink" x="0px" y="0px"
	 viewBox="0 0 591 742" style="enable-background:new 0 0 591 742;" xml:space="preserve">
<style type="text/css">
	.st0{fill:#464444;}
	.st1{fill:#585858;}
	.st2{fill:#232366;}
	.st3{fill:url(#SVGID_1_);}
</style>
<g>
	<path class="st0" d="M41.9,692.1h507.2v23H41.9V692.1z"/>
	<path class="st1" d="M88.3,519.3h412.5l49.7,172.9h-510L88.3,519.3z"/>
	<path class="st2" d="M46,448l8.4-400.1h475.5L545,448l-78.7,88.8L296.4,644L134.7,536.8L46,448z"/>
	<path class="st2" d="M544.1,394.5H46.9v55.2l85.4,83.7L298,644l167.5-107.2l78.7-87.1V394.5z"/>
	<linearGradient id="SVGID_1_" gradientUnits="userSpaceOnUse" x1="96.2006" y1="277.5267" x2="494.7993" y2="277.5267">
		<stop  offset="0" style="stop-color:#FFFFFF"/>
		<stop  offset="0.3613" style="stop-color:#000000"/>
		<stop  offset="0.7284" style="stop-color:#FFFFFF"/>
		<stop  offset="0.886" style="stop-color:#DEDEDE"/>
	</linearGradient>
	<path class="st3" d="M286,114.1c-26.2,22.8-47.9,65.3-39.1,104.4l-13.8,3.2c-2.3-10.1-3-20.2-2.1-29.9
		c-23.7-11.9-48.8-20.2-75.7-23.9c22.6,14.5,33.3,28.5,45.6,50.2c-21.6,1.4-50.1,9-82.4,31.1c27.6,1.2,49.5,5.5,66.2,14.5
		c-31.7,8.5-58.4,27.1-88.5,64c29.7-4.8,51.1,0.2,78.7,8.3c-23.7,18.8-41.9,48.5-50.4,74.1c23.4-13.6,54.7-31.5,80.1-38.7
		c-4.2,22.3-1.6,45.5,8,69.5c9.2-31.8,26.2-61.9,51.3-90.1c-15.6,2.5-27.4,6.2-42.5,10.6c10.4-18.9,20.9-37.9,31.3-56.8
		c-17.3-3.2-30.4-1.1-47.8,0.5c18.9-20.5,37.9-41,56.8-61.6l10.4,9.6l-32.9,35.6c14.3,0.7,21.8,3.2,33.4,8.8
		c-7.6,13.8-15.2,27.6-22.8,41.4c55-12.4,117.5-1.8,175.1,11.9c8.3-7.8,15.2-14.7,21.1-21.2l0.5-19.1l-24.2,17.2l0.2-21.6
		l-22.5,16.5l0.2-20.5l-24.1,17.7l0.4-22.1l-23.9,17.7l9.6-29.5l25.5-26.2l-0.5,22.1l24.1-17.7l-0.5,22.1l23.4-16.8l-1.1,20.9
		l24.4-17.2l-0.2,21.6l24.6-18c3.9-7.4,8.1-15.2,12.9-24.4c-39.5-14.5-78.2-19.1-113.8-25.7c-23.2-23.2-52.9-36.6-84.6-39.3
		C293.1,162.9,289.6,138.5,286,114.1L286,114.1z M366.7,231.7c-6.4,9.4-13.3,10.4-22.3,9.7c-10.8-6.5-17.2-17.3-18.6-29.2
		C341.4,213.8,355.9,223.7,366.7,231.7L366.7,231.7z"/>
</g>
</svg>
